<?xml version="1.0" encoding="UTF-8" standalone="no"?>
<!-- Created with Inkscape (http://www.inkscape.org/) -->

<svg
   xmlns:dc="http://purl.org/dc/elements/1.1/"
   xmlns:cc="http://creativecommons.org/ns#"
   xmlns:rdf="http://www.w3.org/1999/02/22-rdf-syntax-ns#"
   xmlns:svg="http://www.w3.org/2000/svg"
   xmlns="http://www.w3.org/2000/svg"
   xmlns:sodipodi="http://sodipodi.sourceforge.net/DTD/sodipodi-0.dtd"
   xmlns:inkscape="http://www.inkscape.org/namespaces/inkscape"
   width="184.39464mm"
   height="95.177017mm"
   viewBox="0 0 184.39464 95.177017"
   version="1.1"
   id="svg8"
   inkscape:version="0.92.2 (unknown)"
   sodipodi:docname="SDT_drawings.svg">
  <sodipodi:namedview
     id="base"
     pagecolor="#ffffff"
     bordercolor="#666666"
     borderopacity="1.0"
     inkscape:pageopacity="0.0"
     inkscape:pageshadow="2"
     inkscape:zoom="0.98994949"
     inkscape:cx="439.29319"
     inkscape:cy="59.746682"
     inkscape:document-units="mm"
     inkscape:current-layer="layer1"
     showgrid="false"
     inkscape:window-width="1920"
     inkscape:window-height="1056"
     inkscape:window-x="1920"
     inkscape:window-y="24"
     inkscape:window-maximized="1"
     showguides="false"
     fit-margin-top="0"
     fit-margin-left="0"
     fit-margin-right="0"
     fit-margin-bottom="0" />
  <defs
     id="defs2">
    <inkscape:path-effect
       effect="bspline"
       id="path-effect980"
       is_visible="true"
       weight="33.333333"
       steps="2"
       helper_size="0"
       apply_no_weight="true"
       apply_with_weight="true"
       only_selected="false" />
    <inkscape:path-effect
       only_selected="false"
       apply_with_weight="true"
       apply_no_weight="true"
       helper_size="0"
       steps="2"
       weight="33.333333"
       is_visible="true"
       id="path-effect976"
       effect="bspline" />
    <inkscape:path-effect
       effect="bspline"
       id="path-effect909"
       is_visible="true"
       weight="33.333333"
       steps="2"
       helper_size="0"
       apply_no_weight="true"
       apply_with_weight="true"
       only_selected="false" />
    <inkscape:path-effect
       effect="bspline"
       id="path-effect821"
       is_visible="true"
       weight="33.333333"
       steps="2"
       helper_size="0"
       apply_no_weight="true"
       apply_with_weight="true"
       only_selected="false" />
    <inkscape:path-effect
       effect="bspline"
       id="path-effect817"
       is_visible="true"
       weight="33.333333"
       steps="2"
       helper_size="0"
       apply_no_weight="true"
       apply_with_weight="true"
       only_selected="false" />
    <inkscape:path-effect
       effect="bspline"
       id="path-effect909-3"
       is_visible="true"
       weight="33.333333"
       steps="2"
       helper_size="0"
       apply_no_weight="true"
       apply_with_weight="true"
       only_selected="false" />
  </defs>
  <metadata
     id="metadata5">
    <rdf:RDF>
      <cc:Work
         rdf:about="">
        <dc:format>image/svg+xml</dc:format>
        <dc:type
           rdf:resource="http://purl.org/dc/dcmitype/StillImage" />
        <dc:title></dc:title>
      </cc:Work>
    </rdf:RDF>
  </metadata>
  <g
     inkscape:label="Layer 1"
     inkscape:groupmode="layer"
     id="layer1"
     transform="translate(-19.680987,6.4553946)">
    <g
       id="g999"
       transform="translate(0.22413845)">
      <path
         inkscape:connector-curvature="0"
         style="color:#000000;clip-rule:nonzero;display:inline;overflow:visible;visibility:visible;opacity:1;isolation:auto;mix-blend-mode:normal;color-interpolation:sRGB;color-interpolation-filters:linearRGB;solid-color:#000000;solid-opacity:1;vector-effect:none;fill:#008000;fill-opacity:0.39215686;fill-rule:nonzero;stroke:#008000;stroke-width:0.75;stroke-linecap:butt;stroke-linejoin:miter;stroke-miterlimit:4;stroke-dasharray:0.7937501, 0.26458337;stroke-dashoffset:0;stroke-opacity:1;marker:none;marker-start:none;marker-mid:none;marker-end:none;color-rendering:auto;image-rendering:auto;shape-rendering:auto;text-rendering:auto;enable-background:accumulate"
         d="m 76.912896,34.801515 c 0.798648,-0.0887 1.597299,-0.201677 2.395947,-0.352071 0.79865,-0.150339 1.597299,-0.338518 2.395949,-0.581457 0.798649,-0.242957 1.597298,-0.541184 2.395948,-0.914782 0.798651,-0.373597 1.597299,-0.823225 2.395949,-1.369493 0.79865,-0.54625 1.5973,-1.190056 2.39595,-1.948372 0.79865,-0.758316 1.597299,-1.632221 2.39595,-2.629635 0.798648,-0.997394 1.597298,-2.119395 2.395948,-3.358906 0.79865,-1.239511 1.597299,-2.597463 2.39595,-4.047064 0.798649,-1.449602 1.5973,-2.991381 2.395949,-4.577201 0.79865,-1.585839 1.597304,-3.215609 2.395954,-4.822847 0.79865,-1.607237 1.5973,-3.191065 2.39595,-4.674683 0.79865,-1.483602 1.5973,-2.865459 2.39594,-4.070493 0.79866,-1.20501797 1.5973,-2.23125497 2.39595,-3.019017 0.79865,-0.787762 1.5973,-1.334999 2.39595,-1.609249 0.79865,-0.274268 1.5973,-0.27372 2.39595,0 0.79865,0.273719 1.5973,0.821963 2.39595,1.609249 0.79865,0.78728703 1.5973,1.81434703 2.39595,3.019017 0.79865,1.204669 1.5973,2.587092 2.39595,4.070493 0.79865,1.483417 1.5973,3.0675 2.39595,4.674683 0.79865,1.607183 1.5973,3.236916 2.39595,4.822847 0.79865,1.585911 1.5973,3.127417 2.39595,4.577201 0.79865,1.449784 1.5973,2.807316 2.39595,4.047064 0.79865,1.23973 1.5973,2.361255 2.39595,3.358906 0.79865,0.997651 1.5973,1.8711 2.39595,2.629635 0.79865,0.758553 1.5973,1.40192 2.39595,1.948372 0.79865,0.546451 1.5973,0.995749 2.39595,1.369493 0.79865,0.373745 1.5973,0.671716 2.39594,0.914782 0.79865,0.243048 1.5973,0.430971 2.39595,0.581457 0.79865,0.150522 1.5973,0.263295 2.39595,0.352071"
         title="t (1/sqrt(2*pi)) * exp(-pow(t,2)/2)"
         id="path888" />
      <path
         id="path901"
         title="t (1/sqrt(2*pi)) * exp(-pow(t,2)/2)"
         d="m 76.912896,34.801515 c 0.798648,-0.0887 1.597299,-0.201677 2.395947,-0.352071 0.79865,-0.150339 1.597299,-0.338518 2.395949,-0.581457 0.798649,-0.242957 1.597298,-0.541184 2.395948,-0.914782 0.798651,-0.373597 1.597299,-0.823225 2.395949,-1.369493 0.79865,-0.54625 1.5973,-1.190056 2.39595,-1.948372 0.79865,-0.758316 1.597299,-1.632221 2.39595,-2.629635 0.798648,-0.997394 1.597298,-2.119395 2.395948,-3.358906 0.79865,-1.239511 1.597299,-2.597463 2.39595,-4.047064 0.798649,-1.449602 1.5973,-2.991381 2.395949,-4.577201 0.79865,-1.585839 1.597304,-3.215609 2.395954,-4.822847 0.79865,-1.607237 1.5973,-3.191065 2.39595,-4.674683 0.79865,-1.483602 1.5973,-2.865459 2.39594,-4.070493 0.79866,-1.20501797 1.5973,-2.23125497 2.39595,-3.019017 0.79865,-0.787762 1.5973,-1.334999 2.39595,-1.609249 0.79865,-0.274268 1.5973,-0.27372 2.39595,0 0.79865,0.273719 1.5973,0.821963 2.39595,1.609249 0.79865,0.78728703 1.5973,1.81434703 2.39595,3.019017 0.79865,1.204669 1.5973,2.587092 2.39595,4.070493 0.79865,1.483417 1.5973,3.0675 2.39595,4.674683 0.79865,1.607183 1.5973,3.236916 2.39595,4.822847 0.79865,1.585911 1.5973,3.127417 2.39595,4.577201 0.79865,1.449784 1.5973,2.807316 2.39595,4.047064 0.79865,1.23973 1.5973,2.361255 2.39595,3.358906 0.79865,0.997651 1.5973,1.8711 2.39595,2.629635 0.79865,0.758553 1.5973,1.40192 2.39595,1.948372 0.79865,0.546451 1.5973,0.995749 2.39595,1.369493 0.79865,0.373745 1.5973,0.671716 2.39594,0.914782 0.79865,0.243048 1.5973,0.430971 2.39595,0.581457 0.79865,0.150522 1.5973,0.263295 2.39595,0.352071"
         style="color:#000000;clip-rule:nonzero;display:inline;overflow:visible;visibility:visible;opacity:1;isolation:auto;mix-blend-mode:normal;color-interpolation:sRGB;color-interpolation-filters:linearRGB;solid-color:#000000;solid-opacity:1;vector-effect:none;fill:#ff0000;fill-opacity:0.39215686;fill-rule:nonzero;stroke:#ff0000;stroke-width:0.75;stroke-linecap:butt;stroke-linejoin:miter;stroke-miterlimit:4;stroke-dasharray:1.50000004, 1.50000004;stroke-dashoffset:0;stroke-opacity:1;marker:none;marker-start:none;marker-mid:none;marker-end:none;color-rendering:auto;image-rendering:auto;shape-rendering:auto;text-rendering:auto;enable-background:accumulate"
         inkscape:connector-curvature="0" />
      <text
         id="text905"
         y="41.490807"
         x="109.01248"
         style="color:#000000;font-style:normal;font-variant:normal;font-weight:normal;font-stretch:normal;font-size:9.921875px;line-height:6.61458302px;font-family:Arial;-inkscape-font-specification:'Arial, Normal';text-indent:0;text-align:start;text-decoration:none;text-decoration-line:none;letter-spacing:0px;word-spacing:0px;text-transform:none;writing-mode:lr-tb;direction:ltr;baseline-shift:baseline;text-anchor:start;display:inline;overflow:visible;visibility:visible;fill:#000000;fill-opacity:1;fill-rule:nonzero;stroke:none;stroke-width:0.26458332px;stroke-linecap:butt;stroke-linejoin:miter;stroke-opacity:1;marker:none;enable-background:accumulate"
         xml:space="preserve"><tspan
           style="font-size:4.23333311px;stroke-width:0.26458332px"
           y="41.490807"
           x="109.01248"
           id="tspan903"
           sodipodi:role="line">(1)</tspan></text>
      <path
         inkscape:original-d="m 111.65418,-6.4553946 c 2.3e-4,13.795952 0,41.3883926 0,41.3883926"
         inkscape:path-effect="#path-effect909"
         inkscape:connector-curvature="0"
         id="path907"
         d="m 111.65418,-6.4553946 c 0,13.795952 0,27.5922616 0,41.3883926"
         style="fill:none;fill-rule:evenodd;stroke:#000000;stroke-width:0.26458332px;stroke-linecap:butt;stroke-linejoin:miter;stroke-opacity:1" />
    </g>
    <g
       id="g1006">
      <path
         inkscape:connector-curvature="0"
         style="color:#000000;clip-rule:nonzero;display:inline;overflow:visible;visibility:visible;opacity:1;isolation:auto;mix-blend-mode:normal;color-interpolation:sRGB;color-interpolation-filters:linearRGB;solid-color:#000000;solid-opacity:1;vector-effect:none;fill:#008000;fill-opacity:0.39215686;fill-rule:nonzero;stroke:#008000;stroke-width:0.75;stroke-linecap:butt;stroke-linejoin:miter;stroke-miterlimit:4;stroke-dasharray:0.79375011, 0.26458337;stroke-dashoffset:0;stroke-opacity:1;marker:none;marker-start:none;marker-mid:none;marker-end:none;color-rendering:auto;image-rendering:auto;shape-rendering:auto;text-rendering:auto;enable-background:accumulate"
         d="m 39.830778,82.259358 c 0.79865,-0.0887 1.5973,-0.201676 2.39595,-0.352071 0.79865,-0.150339 1.597302,-0.338518 2.395952,-0.581459 0.79865,-0.242956 1.5973,-0.541184 2.39595,-0.914781 0.79865,-0.373597 1.5973,-0.823224 2.39595,-1.369494 0.79865,-0.546248 1.5973,-1.190056 2.39595,-1.94837 0.79865,-0.758317 1.5973,-1.632223 2.39595,-2.629636 0.79865,-0.997394 1.5973,-2.119394 2.39595,-3.358906 0.79865,-1.23951 1.5973,-2.597462 2.39595,-4.047064 0.79865,-1.449602 1.5973,-2.991381 2.39595,-4.577201 0.79865,-1.585839 1.5973,-3.215609 2.39595,-4.822847 0.79865,-1.607237 1.5973,-3.191065 2.39595,-4.674683 0.79864,-1.483602 1.59729,-2.865459 2.39594,-4.070493 0.79866,-1.205018 1.59731,-2.231255 2.39596,-3.019017 0.79864,-0.787762 1.5973,-1.334999 2.39594,-1.609249 0.79865,-0.274268 1.5973,-0.27372 2.39595,0 0.79865,0.273719 1.5973,0.821963 2.39595,1.609249 0.79865,0.787287 1.5973,1.814347 2.39595,3.019017 0.79865,1.204669 1.5973,2.587092 2.39595,4.070493 0.79865,1.483417 1.5973,3.0675 2.39595,4.674683 0.79865,1.607183 1.5973,3.236916 2.39595,4.822847 0.79865,1.585911 1.5973,3.127417 2.39595,4.577201 0.79865,1.449784 1.5973,2.807316 2.39595,4.047064 0.79865,1.239731 1.5973,2.361255 2.39595,3.358906 0.79865,0.997651 1.5973,1.871099 2.39595,2.629636 0.79864,0.758552 1.5973,1.401918 2.39594,1.94837 0.79866,0.546452 1.59731,0.995749 2.39596,1.369494 0.79865,0.373745 1.5973,0.671717 2.39595,0.914781 0.79865,0.243049 1.59729,0.430972 2.39595,0.581459 0.79864,0.150522 1.59729,0.263295 2.39595,0.352071"
         title="t (1/sqrt(2*pi)) * exp(-pow(t,2)/2)"
         id="path888-6" />
      <path
         id="path901-7"
         title="t (1/sqrt(2*pi)) * exp(-pow(t,2)/2)"
         d="m 19.722381,82.259358 c 0.798647,-0.0887 1.597291,-0.201676 2.395938,-0.352071 0.798644,-0.150339 1.597291,-0.338518 2.395935,-0.581456 0.798647,-0.242956 1.597291,-0.541184 2.395938,-0.914784 0.798644,-0.373597 1.597291,-0.823224 2.395935,-1.369491 0.798647,-0.546251 1.597291,-1.190056 2.395941,-1.948373 0.79865,-0.758314 1.5973,-1.63222 2.39595,-2.629636 0.79865,-0.997391 1.5973,-2.119394 2.39595,-3.358904 0.79865,-1.239512 1.5973,-2.597464 2.39595,-4.047065 0.79865,-1.449602 1.5973,-2.991381 2.39595,-4.577201 0.79865,-1.585839 1.5973,-3.215609 2.395952,-4.822847 0.79865,-1.607237 1.5973,-3.191065 2.39595,-4.674683 0.79864,-1.483602 1.59729,-2.865459 2.39594,-4.070493 0.79866,-1.205018 1.59731,-2.231255 2.39596,-3.019017 0.79864,-0.787762 1.5973,-1.334999 2.39594,-1.609249 0.79865,-0.274268 1.5973,-0.27372 2.39595,0 0.79865,0.273719 1.5973,0.821963 2.39595,1.609249 0.79865,0.787287 1.5973,1.814347 2.39595,3.019017 0.79865,1.204669 1.5973,2.587092 2.39595,4.070493 0.79865,1.483417 1.5973,3.0675 2.39595,4.674683 0.79865,1.607183 1.5973,3.236916 2.39595,4.822847 0.79865,1.585911 1.5973,3.127417 2.39595,4.577201 0.79865,1.449783 1.5973,2.807315 2.39595,4.047065 0.79865,1.239729 1.5973,2.361253 2.39595,3.358904 0.79865,0.997652 1.5973,1.871102 2.39595,2.629636 0.79864,0.758552 1.5973,1.401921 2.39594,1.948373 0.79866,0.546449 1.59731,0.995749 2.39596,1.369491 0.79865,0.373745 1.5973,0.671717 2.39595,0.914784 0.79865,0.243046 1.59729,0.430969 2.39595,0.581456 0.79864,0.150522 1.59729,0.263295 2.39595,0.352071"
         style="color:#000000;clip-rule:nonzero;display:inline;overflow:visible;visibility:visible;opacity:1;isolation:auto;mix-blend-mode:normal;color-interpolation:sRGB;color-interpolation-filters:linearRGB;solid-color:#000000;solid-opacity:1;vector-effect:none;fill:#ff0000;fill-opacity:0.39215686;fill-rule:nonzero;stroke:#ff0000;stroke-width:0.75;stroke-linecap:butt;stroke-linejoin:miter;stroke-miterlimit:4;stroke-dasharray:1.50000006, 1.50000006;stroke-dashoffset:0;stroke-opacity:1;marker:none;marker-start:none;marker-mid:none;marker-end:none;color-rendering:auto;image-rendering:auto;shape-rendering:auto;text-rendering:auto;enable-background:accumulate"
         inkscape:connector-curvature="0" />
      <text
         id="text905-5"
         y="87.830719"
         x="61.862816"
         style="color:#000000;font-style:normal;font-variant:normal;font-weight:normal;font-stretch:normal;font-size:9.921875px;line-height:6.61458349px;font-family:Arial;-inkscape-font-specification:'Arial, Normal';text-indent:0;text-align:start;text-decoration:none;text-decoration-line:none;letter-spacing:0px;word-spacing:0px;text-transform:none;writing-mode:lr-tb;direction:ltr;baseline-shift:baseline;text-anchor:start;display:inline;overflow:visible;visibility:visible;fill:#000000;fill-opacity:1;fill-rule:nonzero;stroke:none;stroke-width:0.26458332px;stroke-linecap:butt;stroke-linejoin:miter;stroke-opacity:1;marker:none;enable-background:accumulate"
         xml:space="preserve"><tspan
           style="font-size:4.23333311px;stroke-width:0.26458332px"
           y="87.830719"
           x="61.862816"
           id="tspan903-3"
           sodipodi:role="line">(2)</tspan></text>
      <path
         inkscape:original-d="m 64.50438,41.243674 c 2.3e-4,13.795952 0,41.388392 0,41.388392"
         inkscape:path-effect="#path-effect909-3"
         inkscape:connector-curvature="0"
         id="path907-5"
         d="m 64.50438,41.243674 c 0,13.795952 0,27.592261 0,41.388392"
         style="fill:none;fill-rule:evenodd;stroke:#000000;stroke-width:0.26458332px;stroke-linecap:butt;stroke-linejoin:miter;stroke-opacity:1" />
    </g>
    <g
       id="g992">
      <path
         style="fill:#cccccc;fill-rule:evenodd;stroke:#cccccc;stroke-width:0.26458332px;stroke-linecap:butt;stroke-linejoin:miter;stroke-opacity:1"
         d="m 159.22581,41.243674 c 0,13.795952 0,27.592261 0,41.388392"
         id="path974"
         inkscape:connector-curvature="0"
         inkscape:path-effect="#path-effect976"
         inkscape:original-d="m 159.22581,41.243674 c 2.3e-4,13.795952 0,41.388392 0,41.388392" />
      <path
         id="path964"
         title="t (1/sqrt(2*pi)) * exp(-pow(t,2)/2)"
         d="m 134.55166,82.259358 c 0.79865,-0.0887 1.5973,-0.201676 2.39595,-0.352071 0.79865,-0.150339 1.5973,-0.338518 2.39595,-0.581459 0.79865,-0.242956 1.5973,-0.541184 2.39595,-0.914781 0.79865,-0.373597 1.5973,-0.823224 2.39595,-1.369494 0.79865,-0.546248 1.5973,-1.190056 2.39595,-1.94837 0.79865,-0.758317 1.5973,-1.632223 2.39595,-2.629636 0.79865,-0.997394 1.5973,-2.119394 2.39595,-3.358906 0.79865,-1.23951 1.5973,-2.597462 2.39595,-4.047064 0.79865,-1.449602 1.5973,-2.991381 2.39595,-4.577201 0.79865,-1.585839 1.5973,-3.215609 2.39595,-4.822847 0.79865,-1.607237 1.5973,-3.191065 2.39595,-4.674683 0.79864,-1.483602 1.59729,-2.865459 2.39594,-4.070493 0.79866,-1.205018 1.59731,-2.231255 2.39596,-3.019017 0.79864,-0.787762 1.5973,-1.334999 2.39594,-1.609249 0.79865,-0.274268 1.5973,-0.27372 2.39595,0 0.79865,0.273719 1.5973,0.821963 2.39595,1.609249 0.79865,0.787287 1.5973,1.814347 2.39595,3.019017 0.79865,1.204669 1.5973,2.587092 2.39595,4.070493 0.79865,1.483417 1.5973,3.0675 2.39595,4.674683 0.79865,1.607183 1.5973,3.236916 2.39595,4.822847 0.79865,1.585911 1.5973,3.127417 2.39595,4.577201 0.79865,1.449784 1.5973,2.807316 2.39595,4.047064 0.79865,1.239731 1.5973,2.361255 2.39595,3.358906 0.79865,0.997651 1.5973,1.871099 2.39595,2.629636 0.79864,0.758552 1.5973,1.401918 2.39594,1.94837 0.79866,0.546452 1.59731,0.995749 2.39596,1.369494 0.79865,0.373745 1.5973,0.671717 2.39595,0.914781 0.79865,0.243049 1.59729,0.430972 2.39595,0.581459 0.79864,0.150522 1.59729,0.263295 2.39595,0.352071"
         style="color:#000000;clip-rule:nonzero;display:inline;overflow:visible;visibility:visible;opacity:1;isolation:auto;mix-blend-mode:normal;color-interpolation:sRGB;color-interpolation-filters:linearRGB;solid-color:#000000;solid-opacity:1;vector-effect:none;fill:#008000;fill-opacity:0.39215686;fill-rule:nonzero;stroke:#008000;stroke-width:0.75;stroke-linecap:butt;stroke-linejoin:miter;stroke-miterlimit:4;stroke-dasharray:0.79375011, 0.26458337;stroke-dashoffset:0;stroke-opacity:1;marker:none;marker-start:none;marker-mid:none;marker-end:none;color-rendering:auto;image-rendering:auto;shape-rendering:auto;text-rendering:auto;enable-background:accumulate"
         inkscape:connector-curvature="0" />
      <path
         inkscape:connector-curvature="0"
         style="color:#000000;clip-rule:nonzero;display:inline;overflow:visible;visibility:visible;opacity:1;isolation:auto;mix-blend-mode:normal;color-interpolation:sRGB;color-interpolation-filters:linearRGB;solid-color:#000000;solid-opacity:1;vector-effect:none;fill:#ff0000;fill-opacity:0.39215686;fill-rule:nonzero;stroke:#ff0000;stroke-width:0.75;stroke-linecap:butt;stroke-linejoin:miter;stroke-miterlimit:4;stroke-dasharray:1.50000006, 1.50000006;stroke-dashoffset:0;stroke-opacity:1;marker:none;marker-start:none;marker-mid:none;marker-end:none;color-rendering:auto;image-rendering:auto;shape-rendering:auto;text-rendering:auto;enable-background:accumulate"
         d="m 114.44326,82.259358 c 0.79865,-0.0887 1.59729,-0.201676 2.39594,-0.352071 0.79864,-0.150339 1.59729,-0.338518 2.39593,-0.581456 0.79865,-0.242956 1.5973,-0.541184 2.39594,-0.914784 0.79865,-0.373597 1.59729,-0.823224 2.39594,-1.369491 0.79864,-0.546251 1.59729,-1.190056 2.39594,-1.948373 0.79865,-0.758314 1.5973,-1.63222 2.39595,-2.629636 0.79865,-0.997391 1.5973,-2.119394 2.39595,-3.358904 0.79865,-1.239512 1.5973,-2.597464 2.39595,-4.047065 0.79865,-1.449602 1.5973,-2.991381 2.39595,-4.577201 0.79865,-1.585839 1.5973,-3.215609 2.39595,-4.822847 0.79865,-1.607237 1.5973,-3.191065 2.39595,-4.674683 0.79864,-1.483602 1.59729,-2.865459 2.39594,-4.070493 0.79866,-1.205018 1.59731,-2.231255 2.39596,-3.019017 0.79864,-0.787762 1.5973,-1.334999 2.39594,-1.609249 0.79865,-0.274268 1.5973,-0.27372 2.39595,0 0.79865,0.273719 1.5973,0.821963 2.39595,1.609249 0.79865,0.787287 1.5973,1.814347 2.39595,3.019017 0.79865,1.204669 1.5973,2.587092 2.39595,4.070493 0.79865,1.483417 1.5973,3.0675 2.39595,4.674683 0.79865,1.607183 1.5973,3.236916 2.39595,4.822847 0.79865,1.585911 1.5973,3.127417 2.39595,4.577201 0.79865,1.449783 1.5973,2.807315 2.39595,4.047065 0.79865,1.239729 1.5973,2.361253 2.39595,3.358904 0.79865,0.997652 1.5973,1.871102 2.39595,2.629636 0.79864,0.758552 1.5973,1.401921 2.39594,1.948373 0.79866,0.546449 1.59731,0.995749 2.39596,1.369491 0.79865,0.373745 1.5973,0.671717 2.39595,0.914784 0.79865,0.243046 1.59729,0.430969 2.39595,0.581456 0.79864,0.150522 1.59729,0.263295 2.39595,0.352071"
         title="t (1/sqrt(2*pi)) * exp(-pow(t,2)/2)"
         id="path966" />
      <text
         xml:space="preserve"
         style="color:#000000;font-style:normal;font-variant:normal;font-weight:normal;font-stretch:normal;font-size:9.921875px;line-height:6.61458349px;font-family:Arial;-inkscape-font-specification:'Arial, Normal';text-indent:0;text-align:start;text-decoration:none;text-decoration-line:none;letter-spacing:0px;word-spacing:0px;text-transform:none;writing-mode:lr-tb;direction:ltr;baseline-shift:baseline;text-anchor:start;display:inline;overflow:visible;visibility:visible;fill:#000000;fill-opacity:1;fill-rule:nonzero;stroke:none;stroke-width:0.26458332px;stroke-linecap:butt;stroke-linejoin:miter;stroke-opacity:1;marker:none;enable-background:accumulate"
         x="156.58249"
         y="87.830719"
         id="text972"><tspan
           sodipodi:role="line"
           id="tspan970"
           x="156.58249"
           y="87.830719"
           style="font-size:4.23333311px;stroke-width:0.26458332px">(3)</tspan></text>
      <path
         inkscape:original-d="m 162.40083,41.243674 c 2.3e-4,13.795952 0,41.388392 0,41.388392"
         inkscape:path-effect="#path-effect980"
         inkscape:connector-curvature="0"
         id="path978"
         d="m 162.40083,41.243674 c 0,13.795952 0,27.592261 0,41.388392"
         style="fill:none;fill-rule:evenodd;stroke:#000000;stroke-width:0.26458332px;stroke-linecap:butt;stroke-linejoin:miter;stroke-opacity:1" />
    </g>
  </g>
</svg>
